HIERARCHY
ROOT RootJoint
{
    OFFSET   0.000000   0.000000   0.000000
    CHANNELS 6 Xposition Yposition Zposition Xrotation Yrotation Zrotation
    JOINT pelvis_lowerback
    {
        OFFSET   0.000000   0.093605   0.000000
        CHANNELS 3 Xrotation Yrotation Zrotation
        JOINT lowerback_torso
        {
            OFFSET   0.000000   0.100000   0.000000
            CHANNELS 3 Xrotation Yrotation Zrotation
            JOINT torso_head
            {
                OFFSET   0.000000   0.282350   0.000000
                CHANNELS 3 Xrotation Yrotation Zrotation
                End Site
                {
                    OFFSET   0.000000   0.192650   0.000000
                }
            }
            JOINT rTorso_Clavicle
            {
                OFFSET  -0.001000   0.157500   0.000000
                CHANNELS 3 Xrotation Yrotation Zrotation
                JOINT rShoulder
                {
                    OFFSET  -0.117647   0.000000   0.000000
                    CHANNELS 3 Xrotation Yrotation Zrotation
                    JOINT rElbow
                    {
                        OFFSET  -0.245000   0.000000   0.000000
                        CHANNELS 3 Xrotation Yrotation Zrotation
                        JOINT rWrist
                        {
                            OFFSET  -0.240000   0.000000   0.000000
                            CHANNELS 3 Xrotation Yrotation Zrotation
                            End Site
                            {
                                OFFSET  -0.116353  -0.002500   0.000000
                            }
                        }
                    }
                }
            }
            JOINT lTorso_Clavicle
            {
                OFFSET   0.001000   0.157500   0.000000
                CHANNELS 3 Xrotation Yrotation Zrotation
                JOINT lShoulder
                {
                    OFFSET   0.117647   0.000000   0.000000
                    CHANNELS 3 Xrotation Yrotation Zrotation
                    JOINT lElbow
                    {
                        OFFSET   0.245000   0.000000   0.000000
                        CHANNELS 3 Xrotation Yrotation Zrotation
                        JOINT lWrist
                        {
                            OFFSET   0.240000   0.000000   0.000000
                            CHANNELS 3 Xrotation Yrotation Zrotation
                            End Site
                            {
                                OFFSET   0.116353  -0.002500   0.000000
                            }
                        }
                    }
                }
            }
        }
    }
    JOINT rHip
    {
        OFFSET  -0.100000  -0.051395   0.000000
        CHANNELS 3 Xrotation Yrotation Zrotation
        JOINT rKnee
        {
            OFFSET   0.000000  -0.410000   0.000000
            CHANNELS 3 Xrotation Yrotation Zrotation
            JOINT rAnkle
            {
                OFFSET   0.000000  -0.390000   0.000000
                CHANNELS 3 Xrotation Yrotation Zrotation
                JOINT rToeJoint
                {
                    OFFSET   0.000000  -0.050000   0.130000
                    CHANNELS 3 Xrotation Yrotation Zrotation
                    End Site
                    {
                        OFFSET  -0.010000   0.002000   0.060000
                    }
                }
            }
        }
    }
    JOINT lHip
    {
        OFFSET   0.100000  -0.051395   0.000000
        CHANNELS 3 Xrotation Yrotation Zrotation
        JOINT lKnee
        {
            OFFSET   0.000000  -0.410000   0.000000
            CHANNELS 3 Xrotation Yrotation Zrotation
            JOINT lAnkle
            {
                OFFSET   0.000000  -0.390000   0.000000
                CHANNELS 3 Xrotation Yrotation Zrotation
                JOINT lToeJoint
                {
                    OFFSET   0.000000  -0.050000   0.130000
                    CHANNELS 3 Xrotation Yrotation Zrotation
                    End Site
                    {
                        OFFSET   0.010000   0.002000   0.060000
                    }
                }
            }
        }
    }
}
MOTION
Frames: 15
Frame Time:   0.008333
 -2.376719   0.925631   3.975860   0.000000   0.000000   0.000000   0.000000   0.000000   0.000000   0.000000   0.000000   0.000000   0.000000   0.000000   0.000000   0.000000   0.000000   0.000000   0.000000   0.000000   0.000000   0.000000   0.000000   0.000000   0.000000   0.000000   0.000000   0.000000   0.000000   0.000000   0.000000   0.000000   0.000000   0.000000   0.000000   0.000000   0.000000   0.000000   0.000000   0.000000   0.000000   0.000000   0.000000   0.000000   0.000000   0.000000   0.000000   0.000000   0.000000   0.000000   0.000000   0.000000   0.000000   0.000000   0.000000   0.000000   0.000000   0.000000   0.000000   0.000000   0.000000   0.000000   0.000000
 -2.376737   0.926218   3.975097   0.740384   0.317837  -0.081846  -0.757888  -0.093350   0.027213   0.102403  -0.186074   0.061109  -0.144307   0.122420   0.094384   0.163436  -0.460279   0.411273   0.169642  -0.011842   2.089679   0.007024   0.320369  -0.001161   0.104885   0.323755  -2.972292   0.044952   0.239988  -0.503373   0.119141   0.071580  -1.797267   0.007284  -0.364292   0.000793   0.100195  -0.294263   2.845223  -1.261438  -0.212633  -0.177618   1.230932   0.002729   0.001107  -0.944910  -0.558627   0.027037  -0.089904  -0.000176   0.000353  -1.518345  -0.007063   0.339414   1.911028  -0.004313   0.005320  -1.350259   0.238867  -0.053035   0.292672  -0.000543   0.001407
 -2.376760   0.927169   3.974574   1.420089   0.692338  -0.194056  -1.446781  -0.203963   0.064548   0.219467  -0.403411   0.143774  -0.269205   0.242299   0.191406   0.328559  -1.018339   1.573047   0.340552  -0.113980   4.781132   0.014991   0.597254  -0.001903   0.236744   0.645960  -5.195893   0.094424   0.540869  -1.736942   0.235644   0.186486  -4.064350   0.015891  -0.695160   0.001359   0.223254  -0.633924   4.959174  -2.453872  -0.405833  -0.564243   2.484051   0.007493   0.002658  -1.825920  -1.089563   0.040382  -0.213081  -0.000639   0.000654  -2.929131  -0.012311   0.908469   3.865349  -0.011085   0.011320  -2.605933   0.472773  -0.094329   0.531229  -0.001327   0.002418
 -2.376786   0.928052   3.974280   2.059174   1.079801  -0.319027  -2.097570  -0.324950   0.106573   0.333264  -0.627548   0.231831  -0.375915   0.354686   0.282502   0.501423  -1.609555   3.191134   0.518280  -0.269409   7.867153   0.021772   0.833825  -0.002249   0.363587   0.858254  -6.544541   0.151749   0.870929  -3.415314   0.351842   0.326827  -6.573476   0.023427  -0.989602   0.001643   0.344211  -0.903655   6.210955  -3.575638  -0.571272  -1.136145   3.668476   0.013003   0.003917  -2.647347  -1.587969   0.043257  -0.331636  -0.001194   0.000808  -4.211001  -0.032557   1.648350   5.719422  -0.018467   0.016566  -3.776213   0.695920  -0.125964   0.748608  -0.002200   0.003136
 -2.376802   0.928541   3.974161   2.665261   1.460352  -0.451943  -2.716810  -0.451206   0.156828   0.434509  -0.850761   0.331634  -0.470210   0.459723   0.363198   0.686850  -2.206569   5.103460   0.700128  -0.446854  11.098191   0.026709   1.038736  -0.002313   0.477178   0.974667  -7.179337   0.219874   1.213473  -5.347513   0.469863   0.480115  -9.186773   0.029110  -1.253070   0.001716   0.454950  -1.101090   6.812471  -4.637608  -0.708660  -1.860803   4.775205   0.018458   0.004657  -3.414366  -2.055421   0.037563  -0.446245  -0.001774   0.000876  -5.378533  -0.071416   2.518920   7.462365  -0.025493   0.020801  -4.868595   0.907525  -0.149291   0.942242  -0.003003   0.003564
 -2.376795   0.928392   3.974169   3.239270   1.822793  -0.589378  -3.306602  -0.579429   0.219022   0.521778  -1.069217   0.446504  -0.554938   0.557808   0.435028   0.886211  -2.793355   7.177249   0.884187  -0.629302  14.324478   0.029816   1.218700  -0.002195   0.577235   1.022039  -7.310493   0.299866   1.557577  -7.401603   0.590366   0.638031 -11.810993   0.032842  -1.490389   0.001650   0.554053  -1.240984   6.970297  -5.645030  -0.818126  -2.707954   5.806680   0.023377   0.004880  -4.130890  -2.493495   0.024926  -0.555962  -0.002323   0.000889  -6.442781  -0.129397   3.487200   9.098918  -0.031655   0.024020  -5.888457   1.107411  -0.165534   1.114939  -0.003668   0.003761
 -2.376767   0.927435   3.974266   3.780854   2.160958  -0.727855  -3.867856  -0.707587   0.293689   0.596244  -1.280809   0.574852  -0.631998   0.649346   0.500898   1.098736  -3.360009   9.308593   1.069870  -0.808815  17.476090   0.031375   1.378627  -0.001975   0.665999   1.022139  -7.121116   0.391381   1.895726  -9.486037   0.713036   0.794969 -14.383557   0.034836  -1.705504   0.001507   0.642674  -1.338199   6.844060  -6.601290  -0.900339  -3.650258   6.767133   0.027489   0.004675  -4.800355  -2.903729   0.006726  -0.659684  -0.002799   0.000870  -7.412561  -0.205536   4.525614  10.635381  -0.036721   0.026299  -6.840564   1.295647  -0.175810   1.269989  -0.004177   0.003788
 -2.376644   0.925052   3.974218   4.114407   2.313258  -0.841487  -4.009059  -0.800686   0.444568   0.504924  -1.437287   0.628874  -0.821171   0.698992   0.551135   1.167305  -3.781466  10.879841   1.313202  -0.885026  20.306155   0.021836   1.295803  -0.001445   0.671357   0.977981  -5.845327   0.414250   2.285670 -10.884409   0.642484   0.998406 -16.940988   0.026083  -1.652251   0.001239   0.669479  -1.539745   5.925850  -7.449141  -1.266442  -4.576297   7.898006   0.031538  -0.000326  -5.247857  -3.352626   0.197512  -0.707171  -0.002579   0.000987  -7.937859  -0.081746   5.515255  11.363047  -0.034374   0.024496  -7.603696   1.731932  -0.235052   1.454966  -0.004625   0.004376
 -2.376513   0.921448   3.974025   4.423216   2.445180  -0.945695  -4.103646  -0.891858   0.600313   0.434215  -1.569924   0.675490  -1.007742   0.739813   0.599929   1.231594  -4.152579  12.131855   1.536465  -0.936403  22.800659   0.014794   1.216364  -0.001032   0.665683   0.880881  -4.701259   0.442750   2.659580 -11.996652   0.584510   1.206897 -19.201460   0.019104  -1.590181   0.001026   0.671529  -1.648251   5.110163  -8.263386  -1.619151  -5.466519   8.978797   0.033734  -0.004456  -5.659107  -3.777866   0.371490  -0.722119  -0.002166   0.000881  -8.452951   0.029383   6.450850  11.947611  -0.031297   0.022212  -8.321799   2.142289  -0.283475   1.616847  -0.004764   0.004600
 -2.376393   0.916754   3.973734   4.705215   2.569651  -1.042098  -4.164113  -0.970746   0.749960   0.389857  -1.684485   0.718732  -1.180984   0.776881   0.648260   1.294713  -4.489820  13.154902   1.742507  -0.971724  25.024478   0.009718   1.143964  -0.000710   0.660413   0.787089  -3.808460   0.474333   3.010421 -12.900891   0.536857   1.407290 -21.214011   0.013820  -1.530213   0.000848   0.668681  -1.728853   4.512843  -9.024567  -1.937835  -6.313048   9.988382   0.034360  -0.007397  -6.041927  -4.176154   0.530600  -0.732263  -0.001798   0.000764  -8.969751   0.122263   7.332541  12.466785  -0.028220   0.019971  -8.993503   2.525231  -0.323346   1.763613  -0.004723   0.004612
 -2.376290   0.911068   3.973378   4.961852   2.688220  -1.131608  -4.197945  -1.035824   0.890639   0.368046  -1.782547   0.758267  -1.340641   0.811239   0.695003   1.356237  -4.797950  14.005858   1.932862  -0.994923  27.024919   0.006077   1.077867  -0.000460   0.656567   0.703877  -3.121544   0.507793   3.339052 -13.647218   0.497812   1.597969 -23.020661   0.009851  -1.473552   0.000704   0.664326  -1.800124   4.097759  -9.731247  -2.224950  -7.111540  10.930352   0.033844  -0.009358  -6.398776  -4.548636   0.676371  -0.740540  -0.001489   0.000656  -9.483980   0.198683   8.160244  12.936230  -0.025278   0.017864  -9.621131   2.882502  -0.355993   1.898530  -0.004565   0.004490
 -2.376488   0.909355   3.973297   5.107806   2.584283  -0.605540  -4.191583  -0.997081   0.495714   0.366671  -1.798174   0.599149  -1.477596   0.846883   0.727787   1.397780  -5.053195  15.090494   2.099177  -0.986558  28.991509   0.003403   1.022356  -0.000327   0.657116   0.635846  -2.596055   0.557138   3.675595 -14.484093   0.473467   1.800716 -24.692393   0.006443  -1.408420   0.000581   0.652712  -1.799712   3.922888 -10.349311  -2.443563  -8.309144  11.763630   0.031066  -0.012252  -6.718828  -4.898964   0.807822  -0.648783  -0.000773  -0.000170 -10.266980   0.200946   7.682438  14.247347  -0.020404   0.013804 -10.004224   2.954507  -0.931127   1.546174  -0.005309   0.003667
 -2.377477   0.908382   3.973644   5.200049   2.393782  -0.474541  -4.199625  -0.959047   0.464233   0.380268  -1.796934   0.532093  -1.600758   0.878952   0.748087   1.441706  -5.296132  15.965652   2.254683  -0.976567  30.799222   0.001550   0.972674  -0.000266   0.659730   0.592749  -1.985853   0.621443   4.014307 -15.226974   0.465556   2.010115 -26.295261   0.003815  -1.342047   0.000498   0.640999  -1.776659   3.628163 -10.911052  -2.694629  -8.780305  12.567112   0.026328  -0.014340  -7.001821  -5.208027   0.999659  -0.611273  -0.000575  -0.000420 -10.792723   0.345030   7.677195  15.200520  -0.016853   0.011486 -10.335672   3.276639  -1.048574   1.390196  -0.004294   0.002474
 -2.378733   0.907911   3.974363   5.207417   2.156652  -0.456181  -4.014418  -0.909347   0.494798   0.196541  -1.801510   0.551622  -1.761441   0.847773   0.769460   1.384666  -5.611366  16.403406   2.402235  -1.024757  32.157501   0.000642   0.935998  -0.000304   0.626549   0.596720  -0.695291   0.692670   4.413000 -15.600139   0.345813   2.306691 -27.718936   0.004157  -1.414823   0.000198   0.620248  -1.704050   2.815669 -11.231097  -3.014292  -8.868457  13.053413   0.020798  -0.014248  -7.063055  -5.423723   1.296500  -0.454935  -0.000776  -0.001469 -10.970882   0.576030   7.812911  15.679578  -0.013808   0.009510 -10.509509   3.503346  -1.079034   1.255902  -0.003352   0.001663
 -2.380031   0.907620   3.975132   5.258960   2.001453  -0.464255  -3.864933  -0.897565   0.545480  -0.005790  -1.830794   0.566272  -1.930892   0.813849   0.798618   1.340151  -5.917292  16.530051   2.544862  -1.081350  33.229338   0.000094   0.898127  -0.000339   0.586017   0.593070   0.348215   0.754742   4.778879 -15.744680   0.234565   2.581630 -28.914001   0.004150  -1.488317  -0.000049   0.596761  -1.671173   2.145433 -11.513684  -3.271211  -8.852673  13.454484   0.016221  -0.013035  -7.141296  -5.581423   1.526541  -0.307083  -0.000947  -0.001953 -11.115907   0.786937   7.966364  15.981737  -0.011244   0.007943 -10.690137   3.719040  -1.077674   1.410700  -0.002819   0.001749
